# xmcd
#
# Track frame offsets:
#	150
#	18770
#	47847
#	67180
#	92210
#	119970
#	137200
#	160667
#	180292
#	203767
#
# Disc length: 3024 seconds
#
# Revision: 1
# Processed by: cddbd v1.5.2PL0 Copyright (c) Steve Scherf et al.
# Submitted via: EasyCDDAExtractor 16.0.9.1
#
DISCID=8b0bce0a
DTITLE=Various Artist - AsiaCD067: Dân Ca 3 Miền
DYEAR=1994
DGENRE=Country
TTITLE0=Mạnh Đình and Sơn Tuyền - Tình Thắm Duyên Quê (Trúc Phương)
TTITLE1=Ý Lan - Liên Khúc 3 Miền (Nhạc: Xuân Tiên - Lời: Song Hương, Dân Ca, N
TTITLE1=guyễn Hữu Ba)
TTITLE2=Mạnh Đình and Như Quỳnh - Hữu Duyên Thiên Lý Ngộ (Dân Ca)
TTITLE3=Mạnh Đình and Sơn Tuyền - Giăng Câu (Tô Thanh Tùng)
TTITLE4=Mạnh Đình - Quê Hương (Nhạc: Giáp Văn Thạch, Thơ: Đỗ Trung Quân)
TTITLE5=Như Quỳnh - Qua Cầu Gió Bay (Dân Ca)
TTITLE6=Sơn Tuyền - Duyên Quê (Hoàng Thi Thơ)
TTITLE7=Mạnh Đình - Áo Dài Quê Hương (Anh Bằng)
TTITLE8=Mạnh Đình - Chiếc Áo Bà Ba (Trần Thiện Thanh)
TTITLE9=Mạnh Đình and Như Quỳnh - Ngẫu Hứng Lý Qua Cầu (Trần Tiến)
EXTD=
EXTT0=
EXTT1=
EXTT2=
EXTT3=
EXTT4=
EXTT5=
EXTT6=
EXTT7=
EXTT8=
EXTT9=
PLAYORDER=
